{
    "asset" : {
        "generator" : "Khronos glTF Blender I/O v1.4.40",
        "version" : "2.0"
    },
    "scene" : 0,
    "scenes" : [
        {
            "name" : "Scene",
            "nodes" : [
                2,
                3
            ]
        }
    ],
    "nodes" : [
        {
            "mesh" : 0,
            "name" : "Low_LOD"
        },
        {
            "mesh" : 1,
            "name" : "Medium_LOD"
        },
        {
            "mesh" : 3,
            "name" : "High_LOD",
            "matrix" : [
                1,
                0,
                0,
                0,
                0,
                1,
                0,
                0,
                0,
                0,
                1,
                0,
                -0.4,
                0,
                0,
                1
            ],
            "extensions" : {
                "MSFT_lod" : {
                    "ids" : [
                        1,
                        0
                    ]
                }
            },
            "extras": {
                "MSFT_screencoverage" : [
                    0.5,
                    0.2,
                    0.01
                ]
            }
        },
        {
            "mesh" : 2,
            "name" : "NO_LOD",
            "matrix" : [
                1,
                0,
                0,
                0,
                0,
                1,
                0,
                0,
                0,
                0,
                1,
                0,
                0.4,
                0,
                0,
                1
            ]
        }
    ],
    "materials" : [
        {
            "doubleSided" : true,
            "name" : "Low_LOD_mat",
            "pbrMetallicRoughness" : {
                "baseColorFactor" : [
                    0,
                    1,
                    0,
                    1
                ],
                "metallicFactor" : 0,
                "roughnessFactor" : 0.5
            }
        },
        {
            "doubleSided" : true,
            "name" : "Medium_LOD_mat",
            "pbrMetallicRoughness" : {
                "baseColorFactor" : [
                    1,
                    1,
                    0,
                    1
                ],
                "metallicFactor" : 0,
                "roughnessFactor" : 0.5
            }
        },
        {
            "doubleSided" : true,
            "name" : "High_LOD_mat",
            "pbrMetallicRoughness" : {
                "baseColorFactor" : [
                    1,
                    0,
                    0,
                    1
                ],
                "metallicFactor" : 0,
                "roughnessFactor" : 0.5
            },
            "extensions": {
                "MSFT_lod" : {
                    "ids" : [
                        1,
                        0
                    ]
                }
            },
            "extras": {
                "MSFT_screencoverage" : [
                    0.5,
                    0.2,
                    0.01
                ]
            }
        },
        {
            "doubleSided" : true,
            "name" : "NO_LOD_mat",
            "pbrMetallicRoughness" : {
                "baseColorFactor" : [
                    1,
                    0,
                    0,
                    1
                ],
                "metallicFactor" : 0,
                "roughnessFactor" : 0.5
            }
        }
    ],
    "meshes" : [
        {
            "name" : "Torus_Low_LOD",
            "primitives" : [
                {
                    "attributes" : {
                        "POSITION" : 0,
                        "NORMAL" : 1,
                        "TEXCOORD_0" : 2
                    },
                    "indices" : 3,
                    "material" : 0
                }
            ]
        },
        {
            "name" : "Torus_Middle_LOD",
            "primitives" : [
                {
                    "attributes" : {
                        "POSITION" : 4,
                        "NORMAL" : 5,
                        "TEXCOORD_0" : 6
                    },
                    "indices" : 7,
                    "material" : 1
                }
            ]
        },
        {
            "name" : "Torus_High_LOD",
            "primitives" : [
                {
                    "attributes" : {
                        "POSITION" : 8,
                        "NORMAL" : 9,
                        "TEXCOORD_0" : 10
                    },
                    "indices" : 11,
                    "material" : 2
                }
            ]
        },
        {
            "name" : "Torus",
            "primitives" : [
                {
                    "attributes" : {
                        "POSITION" : 8,
                        "NORMAL" : 9,
                        "TEXCOORD_0" : 10
                    },
                    "indices" : 11,
                    "material" : 3
                }
            ]
        }
    ],
    "accessors" : [
        {
            "bufferView" : 0,
            "componentType" : 5126,
            "count" : 256,
            "max" : [
                0.30000001192092896,
                0.10000000149011612,
                0.30000001192092896
            ],
            "min" : [
                -0.30000001192092896,
                -0.10000000149011612,
                -0.30000001192092896
            ],
            "type" : "VEC3"
        },
        {
            "bufferView" : 1,
            "componentType" : 5126,
            "count" : 256,
            "type" : "VEC3"
        },
        {
            "bufferView" : 2,
            "componentType" : 5126,
            "count" : 256,
            "type" : "VEC2"
        },
        {
            "bufferView" : 3,
            "componentType" : 5123,
            "count" : 384,
            "type" : "SCALAR"
        },
        {
            "bufferView" : 4,
            "componentType" : 5126,
            "count" : 1024,
            "max" : [
                0.30000001192092896,
                0.10000000149011612,
                0.30000001192092896
            ],
            "min" : [
                -0.30000001192092896,
                -0.10000000149011612,
                -0.30000001192092896
            ],
            "type" : "VEC3"
        },
        {
            "bufferView" : 5,
            "componentType" : 5126,
            "count" : 1024,
            "type" : "VEC3"
        },
        {
            "bufferView" : 6,
            "componentType" : 5126,
            "count" : 1024,
            "type" : "VEC2"
        },
        {
            "bufferView" : 7,
            "componentType" : 5123,
            "count" : 1536,
            "type" : "SCALAR"
        },
        {
            "bufferView" : 8,
            "componentType" : 5126,
            "count" : 4096,
            "max" : [
                0.30000001192092896,
                0.10000000149011612,
                0.30000001192092896
            ],
            "min" : [
                -0.30000001192092896,
                -0.10000000149011612,
                -0.30000001192092896
            ],
            "type" : "VEC3"
        },
        {
            "bufferView" : 9,
            "componentType" : 5126,
            "count" : 4096,
            "type" : "VEC3"
        },
        {
            "bufferView" : 10,
            "componentType" : 5126,
            "count" : 4096,
            "type" : "VEC2"
        },
        {
            "bufferView" : 11,
            "componentType" : 5123,
            "count" : 6144,
            "type" : "SCALAR"
        }
    ],
    "bufferViews" : [
        {
            "buffer" : 0,
            "byteLength" : 3072,
            "byteOffset" : 0
        },
        {
            "buffer" : 0,
            "byteLength" : 3072,
            "byteOffset" : 3072
        },
        {
            "buffer" : 0,
            "byteLength" : 2048,
            "byteOffset" : 6144
        },
        {
            "buffer" : 0,
            "byteLength" : 768,
            "byteOffset" : 8192
        },
        {
            "buffer" : 0,
            "byteLength" : 12288,
            "byteOffset" : 8960
        },
        {
            "buffer" : 0,
            "byteLength" : 12288,
            "byteOffset" : 21248
        },
        {
            "buffer" : 0,
            "byteLength" : 8192,
            "byteOffset" : 33536
        },
        {
            "buffer" : 0,
            "byteLength" : 3072,
            "byteOffset" : 41728
        },
        {
            "buffer" : 0,
            "byteLength" : 49152,
            "byteOffset" : 44800
        },
        {
            "buffer" : 0,
            "byteLength" : 49152,
            "byteOffset" : 93952
        },
        {
            "buffer" : 0,
            "byteLength" : 32768,
            "byteOffset" : 143104
        },
        {
            "buffer" : 0,
            "byteLength" : 12288,
            "byteOffset" : 175872
        }
    ],
    "buffers" : [
        {
            "byteLength" : 188160,
            "uri" : "Torus.bin"
        }
    ],
    "extensionsUsed" : [
        "MSFT_lod"
    ]
}
